<svg width="414" height="249" viewBox="0 0 414 249" fill="none" xmlns="http://www.w3.org/2000/svg">
<ellipse cx="205.5" cy="77.5" rx="327.5" ry="171.5" fill="#E0F7EF"/>
<path d="M317.125 63.0938H343.375V69.6562H317.125C316.255 69.6562 315.42 69.3105 314.805 68.6952C314.189 68.0798 313.844 67.2452 313.844 66.375C313.844 65.5048 314.189 64.6702 314.805 64.0548C315.42 63.4395 316.255 63.0938 317.125 63.0938Z" fill="black"/>
<path d="M228.531 95.9062H320.406V174.656H228.531V95.9062Z" fill="#B38B63"/>
<path d="M313.844 95.9062V141.844C313.844 147.065 311.77 152.073 308.077 155.765C304.385 159.457 299.378 161.531 294.156 161.531H228.531V174.656H320.406V95.9062H313.844Z" fill="#A97C50"/>
<path d="M340.094 69.6562V89.3438C340.094 94.5652 342.168 99.5728 345.86 103.265C349.552 106.957 354.56 109.031 359.781 109.031V122.156H379.469V109.031C381.441 108.045 383.099 106.53 384.258 104.654C385.417 102.779 386.031 100.618 386.031 98.4131V69.6562H340.094Z" fill="#FFBCAB"/>
<path d="M379.469 122.156H353.219C347.997 122.156 342.99 124.23 339.298 127.923C335.605 131.615 333.531 136.622 333.531 141.844V214.031H399.156V141.844C399.156 136.622 397.082 131.615 393.39 127.923C389.698 124.23 384.69 122.156 379.469 122.156Z" fill="#101010"/>
<path d="M379.469 168.094V148.406C379.469 144.925 378.086 141.587 375.625 139.125C373.163 136.664 369.825 135.281 366.344 135.281C362.863 135.281 359.524 136.664 357.063 139.125C354.602 141.587 353.219 144.925 353.219 148.406V161.531C353.219 163.272 352.527 164.941 351.297 166.172C350.066 167.402 348.397 168.094 346.656 168.094H307.281V194.344H353.219C360.181 194.344 366.857 191.578 371.78 186.655C376.703 181.732 379.469 175.056 379.469 168.094Z" fill="#55CB95"/>
<path d="M307.281 164.812H287.594V174.656V187.781V197.625H307.281V194.344V168.094V164.812Z" fill="black"/>
<path d="M389.312 69.6562V63.0938C389.312 56.1318 386.547 49.455 381.624 44.5322C376.701 39.6094 370.024 36.8438 363.062 36.8438C356.101 36.8438 349.424 39.6094 344.501 44.5322C339.578 49.455 336.812 56.1318 336.812 63.0938V69.6562H389.312Z" fill="black"/>
<path d="M274.469 122.156L284.312 128.719V95.9062H264.625V128.719L274.469 122.156Z" fill="#55CB95"/>
<path d="M261.344 174.656C261.344 178.137 262.727 181.476 265.188 183.937C267.649 186.398 270.988 187.781 274.469 187.781H287.594V174.656H261.344Z" fill="#FFBCAB"/>
<path d="M333.531 214.031H399L398.5 216.5L384.5 221L369.5 226L363 227.156H333.531V214.031Z" fill="#6D6E71"/>
</svg>
